<svg width="15" height="15" xmlns="http://www.w3.org/2000/svg">
 <g>
  <title>background</title>
  <rect x="-1" y="-1" width="2.93749" height="2.93749" id="canvas_background" fill="none"/>
 </g>

 <g>
  <title>Layer 1</title>
  <path d="m4.5,15c0.82843,0 1.5,-0.6716 1.5,-1.5c0,-0.8284 -0.67157,-1.5 -1.5,-1.5c-0.82843,0 -1.5,0.6716 -1.5,1.5c0,0.8284 0.67157,1.5 1.5,1.5z" opacity="0.3" fill="white" id="svg_1"/>
  <path d="m12.5,15c0.8284,0 1.5,-0.6716 1.5,-1.5c0,-0.8284 -0.6716,-1.5 -1.5,-1.5c-0.8284,0 -1.5,0.6716 -1.5,1.5c0,0.8284 0.6716,1.5 1.5,1.5z" opacity="0.3" fill="white" id="svg_2"/>
  <path d="m15,2l-10.93,0l-0.422,-2l-3.648,0l0,2l2.031,0l1.985,9l10.984,0l0,-2l-5.559,0l5.559,-2.049l0,-4.951z" opacity="0.3" fill="white" id="svg_3"/>
 </g>
</svg>