<svg width="20" height="17" xmlns="http://www.w3.org/2000/svg">
 <g>
  <title>background</title>
  <rect x="-1" y="-1" width="2.81666" height="2.69416" id="canvas_background" fill="none"/>
 </g>

 <g>
  <title>Layer 1</title>
  <path d="m14.1667,8.62476l-8.45241,-8.5l0,6l-5.71429,0l0,5l5.71429,0l0,6l8.45241,-8.5z" fill="#C5C5C5" id="svg_1"/>
  <path d="m16.2996,15.17173l-4.7876,0l0,1.99l4.7876,0c2.0743,0 2.861,-1.81 2.8848,-3.026l0,-10.946c-0.0238,-1.217 -0.8105,-3.028 -2.8848,-3.028l-4.7876,0l0,1.99l4.7876,0c0.7991,0 0.9448,0.681 0.962,1.057l0,10.904c-0.0162,0.376 -0.1629,1.059 -0.962,1.059z" fill="#C5C5C5" id="svg_2"/>
 </g>
</svg>