<svg width="20" height="18" xmlns="http://www.w3.org/2000/svg">
 <g>
  <title>background</title>
  <rect fill="none" id="canvas_background" height="3.125" width="3.25" y="-1" x="-1"/>
 </g>

 <g>
  <title>Layer 1</title>
  <path id="svg_1" fill="#C5C5C5" d="m17.881,14.2285c-2.144,-0.735 -4.256,-1.666 -5.207,-2.39c-0.657,-0.501 -0.77,-1.618 -0.517,-2.415c1.118,-0.903 1.864,-2.477 1.864,-4.278c0,-2.807 -1.8,-5.083 -4.021,-5.083c-2.22098,0 -4.02099,2.276 -4.02099,5.083c0,1.801 0.746,3.374 1.863,4.277c0.253,0.798 0.14101,1.915 -0.51699,2.416c-0.95,0.724 -3.06301,1.654 -5.20701,2.39c-2.144,0.736 -2.118,3.834 -2.118,3.834l19.99999,0c0,0 0.025,-3.099 -2.119,-3.834z"/>
 </g>
</svg>